<svg version="1.1" id="Layer_1" xmlns="http://www.w3.org/2000/svg" xmlns:xlink="http://www.w3.org/1999/xlink" x="0px" y="0px"
	 width="100%" viewBox="0 0 410 410" enable-background="new 0 0 410 410" xml:space="preserve">
<path fill="none" opacity="1.000000" stroke="none" 
	d="
M220.000000,411.000000 
	C146.666672,411.000000 73.833336,411.000000 1.000000,411.000000 
	C1.000000,274.333344 1.000000,137.666672 1.000000,1.000000 
	C137.666672,1.000000 274.333344,1.000000 411.000000,1.000000 
	C411.000000,137.666672 411.000000,274.333344 411.000000,411.000000 
	C347.500000,411.000000 284.000000,411.000000 220.000000,411.000000 
M124.487411,320.157745 
	C124.326508,320.453094 124.165596,320.748413 123.382103,321.421936 
	C122.937378,321.512421 122.492653,321.602875 122.047928,321.693329 
	C121.667336,315.648438 116.910492,312.302429 113.620125,308.058014 
	C111.222679,304.965393 110.555305,301.937225 113.597305,298.869598 
	C117.096130,300.525513 124.108009,296.767517 123.934578,293.199127 
	C123.889252,292.266571 121.267288,290.438599 120.814247,290.704010 
	C116.177063,293.420868 111.259148,295.972168 107.404137,299.612274 
	C104.262428,302.578888 104.656998,306.966248 107.582581,310.492493 
	C109.377174,312.655518 111.508797,314.535095 113.389999,316.630859 
	C117.669479,321.398407 117.252251,322.428223 111.358620,324.850525 
	C108.753487,325.921265 106.552155,327.985474 104.243309,329.700684 
	C104.187347,329.742279 105.153191,331.629303 105.428749,331.574829 
	C108.369194,330.993378 111.753731,330.894012 114.061226,329.289093 
	C117.512238,326.888763 120.726318,324.556885 124.900635,325.252777 
	C125.099167,326.922211 125.297707,328.591675 125.511169,330.316650 
	C125.511169,330.316650 125.480637,330.365326 125.718109,331.003052 
	C127.358673,330.476349 129.362854,330.364471 130.551651,329.322388 
	C132.194016,327.882721 133.221832,325.741943 133.816025,324.894867 
	C137.489563,325.747528 140.277222,326.394531 143.376266,327.113861 
	C144.587494,331.521912 144.587494,331.521912 155.882294,323.862671 
	C159.057755,329.327332 160.909256,329.561371 165.644012,325.074188 
	C168.655899,322.219788 171.652847,319.349609 174.656479,316.486511 
	C175.212158,316.772949 175.767838,317.059418 176.323502,317.345856 
	C175.578705,321.400970 174.833908,325.456085 174.006210,329.962463 
	C180.290009,330.746796 182.997025,325.144073 187.480515,322.554810 
	C187.732315,324.777313 187.946213,326.665344 188.265900,329.487244 
	C190.558212,328.306213 192.364410,327.662445 193.818222,326.555725 
	C195.736786,325.095215 197.378952,323.271576 199.528595,322.385559 
	C198.527740,332.065857 189.822662,337.375946 185.623703,345.805817 
	C190.787140,346.679047 192.639999,343.293304 194.902084,340.604523 
	C199.029572,335.698456 203.160522,330.795227 207.277420,325.880310 
	C207.786316,325.272766 208.416931,324.654724 208.611511,323.938446 
	C208.728607,323.507385 208.111145,322.876801 207.800964,322.292938 
	C206.467300,323.213287 205.364044,323.974609 203.987946,324.924225 
	C203.987946,323.611389 203.987946,322.805511 204.139999,321.496948 
	C204.075668,321.334106 204.011337,321.171295 204.055725,320.597076 
	C204.055725,320.597076 204.085220,320.172485 204.622192,319.974731 
	C205.301468,317.983124 205.980743,315.991547 206.660019,313.999939 
	C206.165909,313.580322 205.671783,313.160706 205.177673,312.741089 
	C201.255768,316.203705 197.333847,319.666290 192.796814,323.671967 
	C193.196960,319.797485 193.472794,317.126526 193.748642,314.455597 
	C193.240616,314.318298 192.732590,314.181030 192.224564,314.043732 
	C188.260574,317.536194 184.296600,321.028687 180.332626,324.521179 
	C179.897339,322.072571 180.556641,320.410645 180.808151,318.689148 
	C181.384186,314.746521 179.013977,312.109894 175.818100,310.979706 
	C172.726852,309.886414 171.731018,312.643646 170.329926,315.147705 
	C168.527390,318.369202 165.496170,320.903198 162.994202,323.733337 
	C162.561615,323.445618 162.129028,323.157928 161.696442,322.870209 
	C161.459518,320.978577 161.222595,319.086914 160.958878,316.981415 
	C159.258133,316.889069 157.708710,316.804962 156.159302,316.720825 
	C155.857651,316.337769 155.555984,315.954712 155.254333,315.571655 
	C157.589264,313.866028 159.924179,312.160400 162.259094,310.454773 
	C161.913666,310.025116 161.568237,309.595459 161.222809,309.165802 
	C152.312653,309.636963 148.896423,319.459991 140.990219,322.274323 
	C139.850967,319.931549 138.813751,317.798615 136.998993,314.066742 
	C134.201248,318.742859 132.072769,322.300354 129.298828,325.653900 
	C129.185806,324.766174 129.072784,323.878479 129.228882,322.341858 
	C130.511765,319.628815 131.794662,316.915771 133.587021,314.049347 
	C133.847397,313.831268 134.107773,313.613220 134.444534,313.333954 
	C134.444534,313.333954 134.535034,313.296692 135.068787,312.963715 
	C137.378677,308.641235 139.688583,304.318726 142.200928,299.446472 
	C142.996033,297.101868 143.791138,294.757263 144.703278,292.067535 
	C136.994843,292.104401 129.644684,301.829559 126.548515,314.492218 
	C126.017975,316.320221 125.487434,318.148254 125.000000,320.000000 
	C125.000000,320.000000 124.968056,319.962646 124.487411,320.157745 
M217.403244,120.064926 
	C217.275314,120.379585 217.147400,120.694237 216.495255,121.338165 
	C215.545151,122.351593 214.595032,123.365013 213.541504,124.488754 
	C234.901550,135.743698 251.900848,150.078278 256.596497,175.078812 
	C244.403854,163.432526 233.260803,150.366196 215.307480,145.430923 
	C216.627289,179.259247 229.031845,208.446426 244.652100,236.219131 
	C246.236420,233.382233 247.037216,230.570953 248.869614,228.872726 
	C278.823608,201.112274 279.827759,152.800690 250.593842,124.343536 
	C245.415024,119.302338 238.955765,115.585426 233.162781,111.158867 
	C231.981125,110.255928 231.136108,108.912430 230.135910,107.772018 
	C231.313370,107.089188 232.439240,106.284904 233.682434,105.756760 
	C234.995865,105.198776 236.421082,104.903938 238.317459,104.339340 
	C233.868774,96.462929 229.681305,88.928391 225.376022,81.461777 
	C221.393814,74.555473 221.324905,74.522957 213.653061,76.110069 
	C205.094131,77.880707 196.562668,79.784241 187.757278,81.686523 
	C189.531326,86.133827 190.986008,89.994774 192.663925,93.756149 
	C192.915848,94.320908 194.212082,94.419792 195.088943,95.531944 
	C195.120163,95.796555 195.151398,96.061172 194.793839,96.821640 
	C193.541550,98.283600 192.289246,99.745560 190.285385,101.164612 
	C189.535339,101.176788 188.785309,101.188965 187.483017,101.095131 
	C187.311462,101.170631 187.139893,101.246132 186.289886,101.321945 
	C185.854218,101.432312 185.418533,101.542671 184.587219,101.467216 
	C184.270248,101.485657 184.025146,101.628006 183.061203,101.978249 
	C179.427063,103.787056 176.275467,103.098328 172.930527,100.812309 
	C169.753525,98.641052 166.074600,97.204193 162.616394,95.444405 
	C162.411316,95.845360 162.206253,96.246307 162.001190,96.647263 
	C169.540970,104.982506 178.613281,110.978600 188.791000,114.497948 
	C190.184708,109.948029 191.379623,106.047157 193.131409,101.896790 
	C194.889526,100.373627 196.647644,98.850464 199.182343,97.191376 
	C210.345291,94.826149 215.795044,97.925056 220.118027,109.763763 
	C220.194641,110.524910 220.271255,111.286049 220.052124,112.740181 
	C219.299988,115.128983 218.547836,117.517792 217.894852,119.911606 
	C217.894852,119.911606 217.858673,119.819138 217.403244,120.064926 
M128.006149,197.018021 
	C128.006149,197.018021 127.955261,197.016220 127.938911,197.802078 
	C129.899673,202.087692 131.860443,206.373291 133.914597,211.306931 
	C146.456268,233.020874 165.373077,245.023026 190.048370,248.537781 
	C192.489548,248.885483 195.080673,250.595245 196.903564,252.384567 
	C201.174988,256.577332 205.022278,261.202209 209.041275,265.652130 
	C209.506424,265.310455 209.971588,264.968781 210.436737,264.627106 
	C207.327011,257.948395 204.123032,251.311676 201.125061,244.583160 
	C191.826370,223.713593 184.544739,202.149887 179.177963,179.097351 
	C177.821472,171.048386 176.464981,162.999405 175.052231,154.289780 
	C174.990936,153.853851 174.929657,153.417938 175.007004,152.106827 
	C174.957977,149.746613 174.908936,147.386383 174.998795,144.232574 
	C174.956726,142.629089 174.914673,141.025604 175.041763,138.910400 
	C178.454010,131.803131 178.030304,131.045654 172.013611,126.741211 
	C167.989380,123.862213 164.128845,120.538025 160.909271,116.798195 
	C155.181107,110.144402 149.994492,103.024384 144.465591,95.951241 
	C143.993713,96.467056 143.123032,97.109612 143.223297,97.354294 
	C145.954620,104.019722 148.785141,110.644493 151.661285,117.422729 
	C139.589981,128.503281 130.650879,141.655258 126.845879,157.914734 
	C126.845879,157.914734 126.822891,157.802170 126.192703,158.247040 
	C125.845795,160.492264 125.498886,162.737503 124.986610,165.802155 
	C125.305481,173.559006 125.624352,181.315842 125.998306,189.024261 
	C125.998306,189.024261 125.924973,189.025375 125.845261,189.777176 
	C126.165581,190.714294 126.485893,191.651398 126.705864,192.797104 
	C126.705864,192.797104 126.852745,192.975998 126.781624,193.700089 
	C127.176300,194.816406 127.570976,195.932709 128.006149,197.018021 
M335.301453,358.790741 
	C334.988129,357.686096 334.674805,356.581482 334.361481,355.476837 
	C337.037994,355.208191 339.714508,354.939545 342.391022,354.670898 
	C340.403717,353.551178 337.958740,352.721497 335.651031,353.005737 
	C334.298370,353.172363 332.417389,354.973969 332.169250,356.300964 
	C331.972321,357.354156 333.894958,358.803619 335.425964,360.537628 
	C336.532867,360.865936 337.765839,360.990112 338.713837,361.575714 
	C339.828613,362.264343 340.696106,363.353271 341.670807,364.268616 
	C340.295227,364.914032 338.912872,366.089966 337.545746,366.072479 
	C335.779724,366.049927 334.025909,365.073669 331.518066,364.267365 
	C333.849121,368.636627 337.046234,369.042969 340.251312,367.796234 
	C341.740540,367.216888 342.622467,365.076385 343.779663,363.643555 
	C341.668274,362.131622 339.578217,360.587952 337.423370,359.140717 
	C337.084686,358.913239 336.452332,359.123047 335.301453,358.790741 
M297.924530,355.322815 
	C297.268616,354.156921 296.612671,352.991028 295.326019,350.704041 
	C293.531372,354.927185 292.256439,357.927368 290.644165,361.521759 
	C289.854187,363.415741 289.064209,365.309753 288.619965,366.374847 
	C292.618866,365.423248 296.598846,364.476166 301.063507,363.413757 
	C300.219513,361.401367 299.098694,358.728973 297.924530,355.322815 
M133.899734,356.354828 
	C133.017792,354.936127 132.172714,353.489838 131.175659,352.157257 
	C131.104935,352.062714 129.536285,352.645294 129.311874,353.183258 
	C128.100098,356.087860 127.092789,359.077759 125.751160,362.674591 
	C125.140060,364.207947 124.528961,365.741272 123.917862,367.274628 
	C127.820259,362.198608 132.446823,363.901245 137.770615,365.698578 
	C136.213242,362.217590 135.074066,359.671356 133.899734,356.354828 
M217.676147,353.319275 
	C214.174667,351.470703 210.671234,352.304657 208.990219,355.352295 
	C207.673508,357.739502 207.283752,361.515350 208.195847,364.059967 
	C209.776276,368.469177 213.988663,369.120453 220.302582,366.635223 
	C221.181931,365.829041 222.061279,365.022888 222.940643,364.216705 
	C222.931976,364.736847 222.923325,365.256989 222.914658,365.777130 
	C224.247803,366.111206 225.580963,366.445312 226.846024,365.943970 
	C226.846024,363.468903 226.846024,360.993835 226.846024,357.376862 
	C230.488907,361.595245 233.140961,364.666260 236.475845,368.527985 
	C236.475845,362.746216 236.475845,358.093811 236.475845,353.441406 
	C236.073288,353.415924 235.670715,353.390442 235.268158,353.364960 
	C235.054520,356.419403 234.840881,359.473816 234.589447,363.068420 
	C232.034805,360.305206 230.021103,358.127136 227.921860,355.213867 
	C227.100479,354.109619 226.279099,353.005341 225.457718,351.901093 
	C225.044922,352.078979 224.632126,352.256897 224.219330,352.434784 
	C224.219330,354.926575 224.219330,357.418396 224.219330,359.494110 
	C222.051590,357.586456 219.988571,355.770966 217.676147,353.319275 
M162.971970,352.186340 
	C154.989914,354.443542 152.125671,360.793884 156.782349,365.909424 
	C159.710266,369.125885 164.812134,369.253418 167.908432,366.187592 
	C171.431595,362.699066 170.668121,357.142303 165.768311,352.708893 
	C165.077347,352.516663 164.386398,352.324402 162.971970,352.186340 
M207.238022,203.813477 
	C206.592651,218.489899 207.831238,232.948242 211.825699,247.517761 
	C222.709900,246.025574 231.731796,241.773071 240.400360,235.010559 
	C225.553787,225.131454 215.909805,211.859024 208.253143,195.104843 
	C207.794937,198.779678 207.537155,200.847000 207.238022,203.813477 
M273.885620,292.258057 
	C264.298004,297.128235 259.222229,305.206970 258.354980,315.653809 
	C257.918488,320.911438 258.508392,326.488129 263.915039,329.688263 
	C269.471893,332.977264 274.726105,331.984894 279.690552,328.224915 
	C282.042572,326.443512 284.435608,324.716278 286.803436,322.954712 
	C288.360748,330.619965 290.428955,331.507812 297.597107,327.588379 
	C299.576752,326.505920 303.715179,321.389252 303.592133,319.283081 
	C303.451141,316.870392 302.786072,312.604126 301.859161,312.467682 
	C298.832428,312.022034 295.390839,309.023529 292.277252,313.220337 
	C289.739441,316.641083 286.455139,319.610687 283.115082,322.300018 
	C280.592621,324.331024 277.601746,325.984924 274.562805,327.119415 
	C270.504242,328.634583 267.464172,326.719086 265.588928,322.978088 
	C262.397736,316.611908 264.630066,304.108124 269.950684,299.276093 
	C271.253113,298.093231 272.982880,297.001892 274.659729,296.718719 
	C276.283478,296.444611 278.216278,297.019806 279.728333,297.785065 
	C280.086945,297.966583 279.362610,300.410797 279.040222,301.791748 
	C278.086975,305.874939 277.085632,309.946899 276.103088,314.023254 
	C276.666290,314.361511 277.229523,314.699799 277.792725,315.038055 
	C279.082703,313.861328 281.016235,312.914673 281.535309,311.462402 
	C282.810791,307.894165 283.883026,304.134369 284.228180,300.377289 
	C284.951233,292.506104 282.486725,290.546631 273.885620,292.258057 
M230.863846,322.815094 
	C228.745514,324.309113 226.511261,325.669769 224.564880,327.361633 
	C223.765366,328.056580 223.586365,329.465424 223.125107,330.549530 
	C224.138229,330.888062 225.130463,331.327423 226.169144,331.542755 
	C227.968765,331.915863 229.797165,332.150238 231.234512,332.381714 
	C232.621948,330.417938 233.926575,327.800476 235.917328,325.902802 
	C241.202393,320.864929 241.441193,319.421356 236.792709,313.716431 
	C233.267792,309.390411 234.224640,301.163239 238.306183,297.438812 
	C239.837509,296.041473 240.565002,293.763275 241.658997,291.886688 
	C239.780899,291.573669 237.902786,291.260651 236.157089,290.969696 
	C235.529633,290.116547 234.760117,289.070251 233.990601,288.023956 
	C233.402802,288.694000 232.228561,289.461975 232.321472,290.018372 
	C232.972778,293.918457 230.149445,295.595673 227.866531,297.758606 
	C222.663376,302.688171 222.318512,307.075531 227.337830,311.870667 
	C230.434875,314.829346 231.743668,317.899933 230.863846,322.815094 
M151.062576,75.577873 
	C143.207596,70.063393 145.003937,63.849648 149.649261,57.189274 
	C146.081223,58.793339 142.513199,60.397404 139.050278,61.954208 
	C136.213730,59.283768 133.632050,56.853260 131.050354,54.422749 
	C130.080444,56.470249 129.837479,57.718227 130.241547,58.699883 
	C132.161514,63.364395 131.406845,66.545036 126.022652,67.934280 
	C124.124077,68.424149 122.420128,69.668312 120.627312,70.568085 
	C130.548523,70.902931 134.905182,75.700050 132.970810,86.730965 
	C134.515488,85.001740 134.882172,84.693268 135.122192,84.306229 
	C136.862640,81.499786 137.998901,77.240906 140.457733,76.250542 
	C143.095901,75.187943 146.968582,77.200203 150.306732,77.848915 
	C150.612793,77.908401 151.182938,77.898193 151.230850,77.770462 
	C151.423569,77.256607 151.459183,76.683838 151.062576,75.577873 
M94.230553,362.844238 
	C94.787674,362.339386 95.344795,361.834503 95.664101,361.545135 
	C96.307663,363.075409 96.881920,364.440918 97.456177,365.806396 
	C97.753944,365.681396 98.051720,365.556396 98.349487,365.431366 
	C98.349487,361.097229 98.349487,356.763092 98.349487,352.428955 
	C97.929665,352.372833 97.509842,352.316711 97.090019,352.260590 
	C96.453026,354.059692 95.816032,355.858765 94.886292,358.484680 
	C92.578629,352.752014 88.451752,351.784821 83.793121,352.057007 
	C82.923172,352.107819 81.394974,352.713043 81.347168,353.182281 
	C80.880554,357.762695 80.564087,362.378265 81.438461,366.864471 
	C82.144524,366.864197 82.850586,366.863892 83.556648,366.863586 
	C83.811913,363.114532 84.067177,359.365479 84.316971,355.696808 
	C90.624657,354.470490 91.875885,355.487701 92.071091,361.376617 
	C92.089058,361.918732 90.343307,365.252258 94.230553,362.844238 
M252.985962,355.940552 
	C252.989685,358.269867 252.466721,360.770386 253.151825,362.878265 
	C253.781479,364.815582 255.435318,367.267395 257.145660,367.772186 
	C258.921265,368.296173 261.753998,367.296326 263.323364,365.996033 
	C265.909912,363.853058 265.667084,356.572723 262.916351,352.760132 
	C262.916351,356.162689 263.416962,358.930756 262.749695,361.380707 
	C262.261810,363.172150 260.237915,364.545258 258.898682,366.104797 
	C257.567108,364.537262 255.553070,363.153351 255.069839,361.357513 
	C254.406677,358.893036 254.903961,356.116302 254.903961,353.473358 
	C254.462952,353.462830 254.021942,353.452332 253.580933,353.441803 
	C253.389343,353.991821 253.197754,354.541809 252.985962,355.940552 
M68.811104,357.464417 
	C68.811104,360.594391 68.811104,363.724335 68.811104,366.854309 
	C69.213814,366.873383 69.616531,366.892456 70.019241,366.911499 
	C70.412651,365.090027 70.806053,363.268524 71.224785,361.329803 
	C73.691376,361.093567 75.968666,360.875458 78.245956,360.657349 
	C70.572899,358.010254 70.572899,358.010254 71.604729,353.966492 
	C73.861389,353.966492 76.239769,353.966492 78.618149,353.966492 
	C72.314766,351.676971 69.473869,352.606537 68.811104,357.464417 
M250.375549,365.809875 
	C251.953369,362.270111 250.296219,360.681091 247.013214,359.586853 
	C244.371674,358.706421 241.927124,357.234985 239.395172,356.025787 
	C239.677200,357.650940 240.566437,359.237732 241.907974,360.181915 
	C243.057144,360.990723 244.828598,360.859985 246.129379,361.526367 
	C247.174210,362.061584 247.926300,363.168243 248.808289,364.021362 
	C247.680130,364.759491 246.534775,366.128021 245.427597,366.097839 
	C243.436813,366.043518 241.468918,365.150085 239.470886,364.601562 
	C241.573090,368.769287 244.740280,369.323517 250.375549,365.809875 
M116.741028,368.081543 
	C118.743561,367.566803 120.746101,367.052063 122.748642,366.537292 
	C116.279907,366.867828 113.089272,365.836914 112.148499,362.072327 
	C111.113960,357.932556 113.135628,355.520172 120.381340,353.625610 
	C118.232788,353.050354 117.244781,352.428406 116.516945,352.652283 
	C113.214279,353.668182 110.318947,355.355164 110.093735,359.291107 
	C109.848389,363.578979 111.658783,366.671082 116.741028,368.081543 
M145.891052,354.627350 
	C146.783813,354.418488 147.676575,354.209625 148.569321,354.000763 
	C148.541199,353.684113 148.513062,353.367432 148.484924,353.050781 
	C144.803024,353.050781 141.121140,353.050781 137.439240,353.050781 
	C137.407074,353.334320 137.374908,353.617828 137.342743,353.901367 
	C138.805679,354.345764 140.268616,354.790161 142.286957,355.403290 
	C142.286957,359.491150 142.286957,363.422791 142.286957,367.354462 
	C142.766235,367.340271 143.245499,367.326080 143.724777,367.311890 
	C143.724777,365.441193 143.555145,363.550995 143.767502,361.704712 
	C144.035614,359.373505 144.615158,357.078125 145.891052,354.627350 
M202.007523,367.991180 
	C203.017349,367.372955 204.027176,366.754761 204.290649,366.593445 
	C201.360336,365.753052 197.061798,365.779785 195.679962,363.785492 
	C194.163193,361.596558 195.334457,357.545044 195.334457,354.085297 
	C192.905472,355.627808 191.541977,358.616638 192.295670,362.095886 
	C193.276230,366.622528 196.636581,368.469299 202.007523,367.991180 
M282.886383,360.522034 
	C282.215240,356.869049 283.370209,354.315643 287.183136,353.325317 
	C283.469147,353.325317 279.755127,353.325317 276.041107,353.325317 
	C276.031433,353.597382 276.021729,353.869446 276.012054,354.141479 
	C277.566498,354.367371 279.120972,354.593262 281.243805,354.901733 
	C281.243805,359.017883 281.243805,363.180908 281.243805,367.343964 
	C281.692963,367.365417 282.142120,367.386902 282.591278,367.408356 
	C282.690125,365.414185 282.789001,363.419983 282.886383,360.522034 
M325.102692,356.923767 
	C326.619843,355.707367 328.137024,354.490967 330.608551,352.509399 
	C326.119751,352.722107 322.617981,352.888062 319.116211,353.054016 
	C323.409058,353.309509 323.569702,355.979340 323.366028,359.153503 
	C323.192719,361.854156 323.330231,364.574738 323.330231,367.286530 
	C323.914276,367.267426 324.498322,367.248322 325.082367,367.229187 
	C325.082367,364.093048 325.082367,360.956909 325.102692,356.923767 
M273.256012,368.052765 
	C274.393677,367.875610 275.531342,367.698456 276.669006,367.521301 
	C276.647797,367.147827 276.626587,366.774353 276.605377,366.400848 
	C274.282837,366.198120 271.960327,365.995361 268.870117,365.725586 
	C268.870117,361.525421 268.870117,357.455536 268.870117,353.385651 
	C268.435089,353.407257 268.000031,353.428894 267.565002,353.450500 
	C267.565002,358.175934 267.565002,362.901337 267.565002,368.040527 
	C269.438080,368.040527 270.908966,368.040527 273.256012,368.052765 
M174.316406,354.648529 
	C173.655807,354.392303 172.995209,354.136047 172.334610,353.879822 
	C172.334610,358.399658 172.334610,362.919464 172.334610,367.439301 
	C172.777145,367.435394 173.219696,367.431458 173.662231,367.427551 
	C174.054596,363.300385 174.446960,359.173187 174.316406,354.648529 
M200.960449,352.474792 
	C200.188904,352.622589 199.417358,352.770386 198.063065,353.029846 
	C201.432266,354.736389 201.432266,354.736389 200.960449,352.474792 
M89.249565,367.051849 
	C89.776482,366.956390 90.303398,366.860931 90.830322,366.765472 
	C90.397575,366.218781 89.964828,365.672089 89.532082,365.125397 
	C89.261887,365.659424 88.991692,366.193451 89.249565,367.051849 
M204.943741,355.419800 
	C204.943741,355.419800 205.015305,355.540741 205.015305,355.540741 
	C205.015305,355.540741 205.092224,355.411896 204.943741,355.419800 
z"/>
<path fill="#FAB60B" opacity="1.000000" stroke="none" 
	d="
M195.025238,94.734184 
	C194.212082,94.419792 192.915848,94.320908 192.663925,93.756149 
	C190.986008,89.994774 189.531326,86.133827 187.757278,81.686523 
	C196.562668,79.784241 205.094131,77.880707 213.653061,76.110069 
	C221.324905,74.522957 221.393814,74.555473 225.376022,81.461777 
	C229.681305,88.928391 233.868774,96.462929 238.317459,104.339340 
	C236.421082,104.903938 234.995865,105.198776 233.682434,105.756760 
	C232.439240,106.284904 231.313370,107.089188 230.135910,107.772018 
	C231.136108,108.912430 231.981125,110.255928 233.162781,111.158867 
	C238.955765,115.585426 245.415024,119.302338 250.593842,124.343536 
	C279.827759,152.800690 278.823608,201.112274 248.869614,228.872726 
	C247.037216,230.570953 246.236420,233.382233 244.652100,236.219131 
	C229.031845,208.446426 216.627289,179.259247 215.307480,145.430923 
	C233.260803,150.366196 244.403854,163.432526 256.596497,175.078812 
	C251.900848,150.078278 234.901550,135.743698 213.541504,124.488754 
	C214.595032,123.365013 215.545151,122.351593 216.988464,121.050301 
	C217.607330,120.448006 217.733002,120.133568 217.858673,119.819138 
	C217.858673,119.819138 217.894852,119.911606 218.163605,119.759567 
	C219.070862,117.087425 219.709366,114.567314 220.347870,112.047195 
	C220.271255,111.286049 220.194641,110.524910 220.315613,109.212151 
	C221.690521,107.814346 222.867859,106.968155 224.126770,105.736511 
	C221.006454,93.256218 208.329453,85.915825 195.025238,94.734184 
z"/>
<path fill="#D7071E" opacity="1.000000" stroke="none" 
	d="
M174.872604,139.422119 
	C174.914673,141.025604 174.956726,142.629089 174.675415,144.913452 
	C174.524139,148.056885 174.696243,150.519455 174.868378,152.982010 
	C174.929657,153.417938 174.990936,153.853851 174.752930,154.787659 
	C174.045944,156.607712 173.171005,157.986954 173.324112,159.240631 
	C173.685455,162.199127 174.388382,165.140976 175.224960,168.010315 
	C176.396820,172.029602 177.815674,175.976883 179.128860,179.954971 
	C184.544739,202.149887 191.826370,223.713593 201.125061,244.583160 
	C204.123032,251.311676 207.327011,257.948395 210.436737,264.627106 
	C209.971588,264.968781 209.506424,265.310455 209.041275,265.652130 
	C205.022278,261.202209 201.174988,256.577332 196.903564,252.384567 
	C195.080673,250.595245 192.489548,248.885483 190.048370,248.537781 
	C165.373077,245.023026 146.456268,233.020874 133.828766,210.559723 
	C131.813705,205.547089 129.884491,201.281662 127.955261,197.016220 
	C127.955261,197.016220 128.006149,197.018021 128.016281,196.655609 
	C127.635193,195.187469 127.243973,194.081726 126.852753,192.975998 
	C126.852745,192.975998 126.705864,192.797104 126.817459,192.295441 
	C126.594368,190.870987 126.259674,189.948181 125.924973,189.025375 
	C125.924973,189.025375 125.998306,189.024261 126.011284,188.576141 
	C126.007851,180.426193 125.991440,172.724380 126.267990,164.744171 
	C126.648262,162.244568 126.735573,160.023361 126.822891,157.802170 
	C126.822891,157.802170 126.845879,157.914734 127.127365,157.756378 
	C128.545883,156.741470 129.567505,155.426010 130.839493,155.106140 
	C137.037430,153.547546 142.850525,151.718536 145.659897,145.057922 
	C146.564484,142.913254 148.309662,141.123154 150.625183,137.800705 
	C151.272736,140.837814 151.533142,142.573608 152.027191,144.240158 
	C152.586624,146.127106 153.288589,149.491302 154.045563,149.524216 
	C156.643234,149.637253 159.817352,149.267395 161.784744,147.777939 
	C164.097260,146.027222 165.379349,142.915421 167.236252,140.207245 
	C168.406876,141.067154 169.568176,141.920212 170.583771,142.666229 
	C172.137924,141.490662 173.505264,140.456390 174.872604,139.422119 
z"/>
<path fill="#D4071D" opacity="1.000000" stroke="none" 
	d="
M174.957184,139.166260 
	C173.505264,140.456390 172.137924,141.490662 170.583771,142.666229 
	C169.568176,141.920212 168.406876,141.067154 167.236252,140.207245 
	C165.379349,142.915421 164.097260,146.027222 161.784744,147.777939 
	C159.817352,149.267395 156.643234,149.637253 154.045563,149.524216 
	C153.288589,149.491302 152.586624,146.127106 152.027191,144.240158 
	C151.533142,142.573608 151.272736,140.837814 150.625183,137.800705 
	C148.309662,141.123154 146.564484,142.913254 145.659897,145.057922 
	C142.850525,151.718536 137.037430,153.547546 130.839493,155.106140 
	C129.567505,155.426010 128.545883,156.741470 127.071693,157.742233 
	C130.650879,141.655258 139.589981,128.503281 151.661285,117.422729 
	C148.785141,110.644493 145.954620,104.019722 143.223297,97.354294 
	C143.123032,97.109612 143.993713,96.467056 144.465591,95.951241 
	C149.994492,103.024384 155.181107,110.144402 160.909271,116.798195 
	C164.128845,120.538025 167.989380,123.862213 172.013611,126.741211 
	C178.030304,131.045654 178.454010,131.803131 174.957184,139.166260 
z"/>
<path fill="#F9B70D" opacity="1.000000" stroke="none" 
	d="
M207.258698,203.363892 
	C207.537155,200.847000 207.794937,198.779678 208.253143,195.104843 
	C215.909805,211.859024 225.553787,225.131454 240.400360,235.010559 
	C231.731796,241.773071 222.709900,246.025574 211.825699,247.517761 
	C207.831238,232.948242 206.592651,218.489899 207.258698,203.363892 
z"/>
<path fill="#CB182A" opacity="1.000000" stroke="none" 
	d="
M199.139954,321.604004 
	C197.378952,323.271576 195.736786,325.095215 193.818222,326.555725 
	C192.364410,327.662445 190.558212,328.306213 188.265900,329.487244 
	C187.946213,326.665344 187.732315,324.777313 187.480515,322.554810 
	C182.997025,325.144073 180.290009,330.746796 174.006210,329.962463 
	C174.833908,325.456085 175.578705,321.400970 176.323502,317.345856 
	C175.767838,317.059418 175.212158,316.772949 174.656479,316.486511 
	C171.652847,319.349609 168.655899,322.219788 165.644012,325.074188 
	C160.909256,329.561371 159.057755,329.327332 155.882294,323.862671 
	C144.587494,331.521912 144.587494,331.521912 143.376266,327.113861 
	C140.277222,326.394531 137.489563,325.747528 133.816025,324.894867 
	C133.221832,325.741943 132.194016,327.882721 130.551651,329.322388 
	C129.362854,330.364471 127.358673,330.476349 125.992935,330.582031 
	C127.493279,328.726624 128.718796,327.292267 129.944305,325.857880 
	C132.072769,322.300354 134.201248,318.742859 136.998993,314.066742 
	C138.813751,317.798615 139.850967,319.931549 140.990219,322.274323 
	C148.896423,319.459991 152.312653,309.636963 161.222809,309.165802 
	C161.568237,309.595459 161.913666,310.025116 162.259094,310.454773 
	C159.924179,312.160400 157.589264,313.866028 155.254333,315.571655 
	C155.555984,315.954712 155.857651,316.337769 156.159302,316.720825 
	C157.708710,316.804962 159.258133,316.889069 160.958878,316.981415 
	C161.222595,319.086914 161.459518,320.978577 161.696442,322.870209 
	C162.129028,323.157928 162.561615,323.445618 162.994202,323.733337 
	C165.496170,320.903198 168.527390,318.369202 170.329926,315.147705 
	C171.731018,312.643646 172.726852,309.886414 175.818100,310.979706 
	C179.013977,312.109894 181.384186,314.746521 180.808151,318.689148 
	C180.556641,320.410645 179.897339,322.072571 180.332626,324.521179 
	C184.296600,321.028687 188.260574,317.536194 192.224564,314.043732 
	C192.732590,314.181030 193.240616,314.318298 193.748642,314.455597 
	C193.472794,317.126526 193.196960,319.797485 192.796814,323.671967 
	C197.333847,319.666290 201.255768,316.203705 205.177673,312.741089 
	C205.671783,313.160706 206.165909,313.580322 206.660019,313.999939 
	C205.980743,315.991547 205.301468,317.983124 204.187195,319.816986 
	C202.214798,320.307495 200.677368,320.955750 199.139954,321.604004 
z"/>
<path fill="#CD1629" opacity="1.000000" stroke="none" 
	d="
M274.246643,292.135986 
	C282.486725,290.546631 284.951233,292.506104 284.228180,300.377289 
	C283.883026,304.134369 282.810791,307.894165 281.535309,311.462402 
	C281.016235,312.914673 279.082703,313.861328 277.792725,315.038055 
	C277.229523,314.699799 276.666290,314.361511 276.103088,314.023254 
	C277.085632,309.946899 278.086975,305.874939 279.040222,301.791748 
	C279.362610,300.410797 280.086945,297.966583 279.728333,297.785065 
	C278.216278,297.019806 276.283478,296.444611 274.659729,296.718719 
	C272.982880,297.001892 271.253113,298.093231 269.950684,299.276093 
	C264.630066,304.108124 262.397736,316.611908 265.588928,322.978088 
	C267.464172,326.719086 270.504242,328.634583 274.562805,327.119415 
	C277.601746,325.984924 280.592621,324.331024 283.115082,322.300018 
	C286.455139,319.610687 289.739441,316.641083 292.277252,313.220337 
	C295.390839,309.023529 298.832428,312.022034 301.859161,312.467682 
	C302.786072,312.604126 303.451141,316.870392 303.592133,319.283081 
	C303.715179,321.389252 299.576752,326.505920 297.597107,327.588379 
	C290.428955,331.507812 288.360748,330.619965 286.806763,322.959625 
	C284.435608,324.716278 282.042572,326.443512 279.690552,328.224915 
	C274.726105,331.984894 269.471893,332.977264 263.915039,329.688263 
	C258.508392,326.488129 257.918488,320.911438 258.354980,315.653809 
	C259.222229,305.206970 264.298004,297.128235 274.246643,292.135986 
M292.316620,323.595184 
	C294.005280,326.463165 296.380432,326.009277 298.573059,322.057495 
	C299.267120,320.806641 299.033539,319.041107 299.224487,317.511108 
	C297.867554,317.961365 296.246033,318.093842 295.223083,318.945312 
	C294.041809,319.928619 293.388153,321.545746 292.316620,323.595184 
z"/>
<path fill="#CE1A2C" opacity="1.000000" stroke="none" 
	d="
M230.904999,322.402679 
	C231.743668,317.899933 230.434875,314.829346 227.337830,311.870667 
	C222.318512,307.075531 222.663376,302.688171 227.866531,297.758606 
	C230.149445,295.595673 232.972778,293.918457 232.321472,290.018372 
	C232.228561,289.461975 233.402802,288.694000 233.990601,288.023956 
	C234.760117,289.070251 235.529633,290.116547 236.157089,290.969696 
	C237.902786,291.260651 239.780899,291.573669 241.658997,291.886688 
	C240.565002,293.763275 239.837509,296.041473 238.306183,297.438812 
	C234.224640,301.163239 233.267792,309.390411 236.792709,313.716431 
	C241.441193,319.421356 241.202393,320.864929 235.917328,325.902802 
	C233.926575,327.800476 232.621948,330.417938 231.234512,332.381714 
	C229.797165,332.150238 227.968765,331.915863 226.169144,331.542755 
	C225.130463,331.327423 224.138229,330.888062 223.125107,330.549530 
	C223.586365,329.465424 223.765366,328.056580 224.564880,327.361633 
	C226.511261,325.669769 228.745514,324.309113 230.904999,322.402679 
z"/>
<path fill="#D31224" opacity="1.000000" stroke="none" 
	d="
M151.307724,75.855354 
	C151.459183,76.683838 151.423569,77.256607 151.230850,77.770462 
	C151.182938,77.898193 150.612793,77.908401 150.306732,77.848915 
	C146.968582,77.200203 143.095901,75.187943 140.457733,76.250542 
	C137.998901,77.240906 136.862640,81.499786 135.122192,84.306229 
	C134.882172,84.693268 134.515488,85.001740 132.970810,86.730965 
	C134.905182,75.700050 130.548523,70.902931 120.627312,70.568085 
	C122.420128,69.668312 124.124077,68.424149 126.022652,67.934280 
	C131.406845,66.545036 132.161514,63.364395 130.241547,58.699883 
	C129.837479,57.718227 130.080444,56.470249 131.050354,54.422749 
	C133.632050,56.853260 136.213730,59.283768 139.050278,61.954208 
	C142.513199,60.397404 146.081223,58.793339 149.649261,57.189274 
	C145.003937,63.849648 143.207596,70.063393 151.307724,75.855354 
z"/>
<path fill="#CF172A" opacity="1.000000" stroke="none" 
	d="
M129.621567,325.755890 
	C128.718796,327.292267 127.493279,328.726624 125.874199,330.263184 
	C125.480637,330.365326 125.511169,330.316650 125.652641,329.937012 
	C125.559700,327.877197 125.325279,326.196991 125.090866,324.516785 
	C120.726318,324.556885 117.512238,326.888763 114.061226,329.289093 
	C111.753731,330.894012 108.369194,330.993378 105.428749,331.574829 
	C105.153191,331.629303 104.187347,329.742279 104.243309,329.700684 
	C106.552155,327.985474 108.753487,325.921265 111.358620,324.850525 
	C117.252251,322.428223 117.669479,321.398407 113.389999,316.630859 
	C111.508797,314.535095 109.377174,312.655518 107.582581,310.492493 
	C104.656998,306.966248 104.262428,302.578888 107.404137,299.612274 
	C111.259148,295.972168 116.177063,293.420868 120.814247,290.704010 
	C121.267288,290.438599 123.889252,292.266571 123.934578,293.199127 
	C124.108009,296.767517 117.096130,300.525513 113.597305,298.869598 
	C110.555305,301.937225 111.222679,304.965393 113.620125,308.058014 
	C116.910492,312.302429 121.667336,315.648438 122.047928,321.693329 
	C122.492653,321.602875 122.937378,321.512421 123.796425,321.436340 
	C124.394638,321.706360 124.636337,321.882690 125.173019,322.251038 
	C126.593391,322.678436 127.776573,322.834595 128.959763,322.990753 
	C129.072784,323.878479 129.185806,324.766174 129.621567,325.755890 
z"/>
<path fill="#F7B917" opacity="1.000000" stroke="none" 
	d="
M188.035263,101.201141 
	C188.785309,101.188965 189.535339,101.176788 190.861969,101.421402 
	C191.817215,101.834213 192.195877,101.990250 192.574524,102.146278 
	C191.379623,106.047157 190.184708,109.948029 188.791000,114.497948 
	C178.613281,110.978600 169.540970,104.982506 162.001190,96.647263 
	C162.206253,96.246307 162.411316,95.845360 162.616394,95.444405 
	C166.074600,97.204193 169.753525,98.641052 172.930527,100.812309 
	C176.275467,103.098328 179.427063,103.787056 183.656952,101.975464 
	C184.538467,101.962875 184.781845,101.856323 184.982864,101.653038 
	C185.418533,101.542671 185.854218,101.432312 186.746002,101.448730 
	C187.479828,101.450722 187.757538,101.325928 188.035263,101.201141 
z"/>
<path fill="#CE1124" opacity="1.000000" stroke="none" 
	d="
M129.094330,322.666321 
	C127.776573,322.834595 126.593391,322.678436 125.193947,321.915558 
	C124.974480,320.860107 124.971268,320.411377 124.968048,319.962646 
	C124.968056,319.962646 125.000000,320.000000 125.314949,319.824554 
	C126.077332,317.740967 126.524757,315.832794 126.972183,313.924652 
	C129.644684,301.829559 136.994843,292.104401 144.703278,292.067535 
	C143.791138,294.757263 142.996033,297.101868 141.856720,299.584595 
	C141.309647,299.414978 141.106781,299.107269 140.860428,298.500732 
	C140.655319,297.958771 140.518219,297.691925 140.318817,297.485168 
	C140.248825,297.412598 139.933517,297.428833 139.885986,297.503571 
	C137.267319,301.621124 134.665192,305.749176 132.093292,310.240173 
	C132.928467,311.501648 133.731750,312.399170 134.535034,313.296692 
	C134.535034,313.296692 134.444534,313.333954 134.118652,313.350220 
	C133.554352,313.645233 133.315948,313.923981 133.077545,314.202728 
	C131.794662,316.915771 130.511765,319.628815 129.094330,322.666321 
z"/>
<path fill="#CE1A2C" opacity="1.000000" stroke="none" 
	d="
M199.334259,321.994781 
	C200.677368,320.955750 202.214798,320.307495 203.918716,319.915863 
	C204.085220,320.172485 204.055725,320.597076 203.841736,320.896118 
	C203.747803,321.463318 203.867874,321.731476 203.987946,321.999664 
	C203.987946,322.805511 203.987946,323.611389 203.987946,324.924225 
	C205.364044,323.974609 206.467300,323.213287 207.800964,322.292938 
	C208.111145,322.876801 208.728607,323.507385 208.611511,323.938446 
	C208.416931,324.654724 207.786316,325.272766 207.277420,325.880310 
	C203.160522,330.795227 199.029572,335.698456 194.902084,340.604523 
	C192.639999,343.293304 190.787140,346.679047 185.623703,345.805817 
	C189.822662,337.375946 198.527740,332.065857 199.334259,321.994781 
z"/>
<path fill="#FCF9EE" opacity="1.000000" stroke="none" 
	d="
M93.971680,363.016968 
	C90.343307,365.252258 92.089058,361.918732 92.071091,361.376617 
	C91.875885,355.487701 90.624657,354.470490 84.316971,355.696808 
	C84.067177,359.365479 83.811913,363.114532 83.556648,366.863586 
	C82.850586,366.863892 82.144524,366.864197 81.438461,366.864471 
	C80.564087,362.378265 80.880554,357.762695 81.347168,353.182281 
	C81.394974,352.713043 82.923172,352.107819 83.793121,352.057007 
	C88.451752,351.784821 92.578629,352.752014 94.886292,358.484680 
	C95.816032,355.858765 96.453026,354.059692 97.090019,352.260590 
	C97.509842,352.316711 97.929665,352.372833 98.349487,352.428955 
	C98.349487,356.763092 98.349487,361.097229 98.349487,365.431366 
	C98.051720,365.556396 97.753944,365.681396 97.456177,365.806396 
	C96.881920,364.440918 96.307663,363.075409 95.664101,361.545135 
	C95.344795,361.834503 94.787674,362.339386 93.971680,363.016968 
z"/>
<path fill="#F1BB2A" opacity="1.000000" stroke="none" 
	d="
M224.045212,106.121964 
	C222.867859,106.968155 221.690521,107.814346 220.241882,108.836380 
	C215.795044,97.925056 210.345291,94.826149 198.481750,97.081741 
	C197.488541,96.604988 197.195923,96.237862 197.163818,95.619858 
	C207.218704,90.460182 215.758820,93.389732 220.510635,103.076126 
	C221.140610,104.360336 222.840714,105.119591 224.045212,106.121964 
z"/>
<path fill="#D5C27D" opacity="1.000000" stroke="none" 
	d="
M166.145416,353.355774 
	C170.668121,357.142303 171.431595,362.699066 167.908432,366.187592 
	C164.812134,369.253418 159.710266,369.125885 156.782349,365.909424 
	C152.125671,360.793884 154.989914,354.443542 163.383942,352.462463 
	C163.850937,353.144501 163.905945,353.550446 163.622284,353.913025 
	C158.072250,354.716675 155.992035,357.399811 156.995316,362.120422 
	C157.885681,366.309662 161.083099,366.839447 164.313141,365.833923 
	C165.822388,365.364166 167.411407,363.378326 167.897400,361.759369 
	C168.939560,358.287598 167.187241,355.684174 164.336060,354.055542 
	C165.135391,353.842651 165.640396,353.599213 166.145416,353.355774 
z"/>
<path fill="#FCF8DE" opacity="1.000000" stroke="none" 
	d="
M224.126770,105.736511 
	C222.840714,105.119591 221.140610,104.360336 220.510635,103.076126 
	C215.758820,93.389732 207.218704,90.460182 196.870605,95.669228 
	C195.938828,96.088249 195.560730,96.207024 195.182648,96.325790 
	C195.151398,96.061172 195.120163,95.796555 195.057098,95.133064 
	C208.329453,85.915825 221.006454,93.256218 224.126770,105.736511 
z"/>
<path fill="#FBFAF1" opacity="1.000000" stroke="none" 
	d="
M226.914093,366.779419 
	C225.580963,366.445312 224.247803,366.111206 222.914658,365.777130 
	C222.923325,365.256989 222.931976,364.736847 222.940643,364.216705 
	C222.061279,365.022888 221.181931,365.829041 220.027924,366.484741 
	C219.806412,365.986084 219.859558,365.637848 219.935593,364.843048 
	C219.293594,360.908783 218.628693,357.421143 217.966446,353.956116 
	C217.969101,353.978790 217.925552,353.955444 217.925537,353.955444 
	C219.988571,355.770966 222.051590,357.586456 224.219330,359.494110 
	C224.219330,357.418396 224.219330,354.926575 224.219330,352.434784 
	C224.632126,352.256897 225.044922,352.078979 225.457718,351.901093 
	C226.279099,353.005341 227.100479,354.109619 227.590973,355.708801 
	C227.144745,359.728973 227.029419,363.254181 226.914093,366.779419 
z"/>
<path fill="#D5C27D" opacity="1.000000" stroke="none" 
	d="
M252.996063,355.516174 
	C253.197754,354.541809 253.389343,353.991821 253.580933,353.441803 
	C254.021942,353.452332 254.462952,353.462830 254.903961,353.473358 
	C254.903961,356.116302 254.406677,358.893036 255.069839,361.357513 
	C255.553070,363.153351 257.567108,364.537262 258.898682,366.104797 
	C260.237915,364.545258 262.261810,363.172150 262.749695,361.380707 
	C263.416962,358.930756 262.916351,356.162689 262.916351,352.760132 
	C265.667084,356.572723 265.909912,363.853058 263.323364,365.996033 
	C261.753998,367.296326 258.921265,368.296173 257.145660,367.772186 
	C255.435318,367.267395 253.781479,364.815582 253.151825,362.878265 
	C252.466721,360.770386 252.989685,358.269867 252.996063,355.516174 
z"/>
<path fill="#D5C27D" opacity="1.000000" stroke="none" 
	d="
M226.880066,366.361694 
	C227.029419,363.254181 227.144745,359.728973 227.633743,356.076416 
	C230.021103,358.127136 232.034805,360.305206 234.589447,363.068420 
	C234.840881,359.473816 235.054520,356.419403 235.268158,353.364960 
	C235.670715,353.390442 236.073288,353.415924 236.475845,353.441406 
	C236.475845,358.093811 236.475845,362.746216 236.475845,368.527985 
	C233.140961,364.666260 230.488907,361.595245 226.846024,357.376862 
	C226.846024,360.993835 226.846024,363.468903 226.880066,366.361694 
z"/>
<path fill="#CBB564" opacity="1.000000" stroke="none" 
	d="
M68.825073,357.013428 
	C69.473869,352.606537 72.314766,351.676971 78.618149,353.966492 
	C76.239769,353.966492 73.861389,353.966492 71.604729,353.966492 
	C70.572899,358.010254 70.572899,358.010254 78.245956,360.657349 
	C75.968666,360.875458 73.691376,361.093567 71.224785,361.329803 
	C70.806053,363.268524 70.412651,365.090027 70.019241,366.911499 
	C69.616531,366.892456 69.213814,366.873383 68.811104,366.854309 
	C68.811104,363.724335 68.811104,360.594391 68.825073,357.013428 
z"/>
<path fill="#D0BD76" opacity="1.000000" stroke="none" 
	d="
M250.133148,366.131256 
	C244.740280,369.323517 241.573090,368.769287 239.470886,364.601562 
	C241.468918,365.150085 243.436813,366.043518 245.427597,366.097839 
	C246.534775,366.128021 247.680130,364.759491 248.808289,364.021362 
	C247.926300,363.168243 247.174210,362.061584 246.129379,361.526367 
	C244.828598,360.859985 243.057144,360.990723 241.907974,360.181915 
	C240.566437,359.237732 239.677200,357.650940 239.395172,356.025787 
	C241.927124,357.234985 244.371674,358.706421 247.013214,359.586853 
	C250.296219,360.681091 251.953369,362.270111 250.133148,366.131256 
z"/>
<path fill="#CBB564" opacity="1.000000" stroke="none" 
	d="
M219.912689,365.289642 
	C219.859558,365.637848 219.806412,365.986084 219.702652,366.593201 
	C213.988663,369.120453 209.776276,368.469177 208.195847,364.059967 
	C207.283752,361.515350 207.673508,357.739502 208.990219,355.352295 
	C210.671234,352.304657 214.174667,351.470703 217.800842,353.637360 
	C217.925552,353.955444 217.969101,353.978790 217.710480,354.014374 
	C217.290726,354.118439 217.129593,354.186920 216.735901,354.235596 
	C216.503342,354.215759 216.046494,354.311707 215.702332,354.227905 
	C214.890564,354.188477 214.422974,354.232880 213.699249,354.269043 
	C213.174866,354.464020 212.906570,354.667175 212.322006,354.933411 
	C211.207794,355.950928 210.409851,356.905334 209.443695,358.090607 
	C209.236984,358.884277 209.198456,359.447113 209.105637,360.346985 
	C209.109909,361.133270 209.168488,361.582520 209.234009,362.286804 
	C209.457336,362.795715 209.673737,363.049622 210.020721,363.647156 
	C212.922226,368.052673 216.543503,365.723846 219.912689,365.289642 
z"/>
<path fill="#FCF8DE" opacity="1.000000" stroke="none" 
	d="
M126.014954,362.038239 
	C127.092789,359.077759 128.100098,356.087860 129.311874,353.183258 
	C129.536285,352.645294 131.104935,352.062714 131.175659,352.157257 
	C132.172714,353.489838 133.017792,354.936127 133.607407,356.727905 
	C133.421432,358.828827 133.527786,360.556671 133.683075,363.079712 
	C131.045959,362.721527 128.530457,362.379883 126.014954,362.038239 
z"/>
<path fill="#D0BD76" opacity="1.000000" stroke="none" 
	d="
M116.342392,368.046051 
	C111.658783,366.671082 109.848389,363.578979 110.093735,359.291107 
	C110.318947,355.355164 113.214279,353.668182 116.516945,352.652283 
	C117.244781,352.428406 118.232788,353.050354 120.381340,353.625610 
	C113.135628,355.520172 111.113960,357.932556 112.148499,362.072327 
	C113.089272,365.836914 116.279907,366.867828 122.748642,366.537292 
	C120.746101,367.052063 118.743561,367.566803 116.342392,368.046051 
z"/>
<path fill="#CBB564" opacity="1.000000" stroke="none" 
	d="
M145.475708,354.697327 
	C144.615158,357.078125 144.035614,359.373505 143.767502,361.704712 
	C143.555145,363.550995 143.724777,365.441193 143.724777,367.311890 
	C143.245499,367.326080 142.766235,367.340271 142.286957,367.354462 
	C142.286957,363.422791 142.286957,359.491150 142.286957,355.403290 
	C140.268616,354.790161 138.805679,354.345764 137.342743,353.901367 
	C137.374908,353.617828 137.407074,353.334320 137.439240,353.050781 
	C141.121140,353.050781 144.803024,353.050781 148.484924,353.050781 
	C148.513062,353.367432 148.541199,353.684113 148.569321,354.000763 
	C147.676575,354.209625 146.783813,354.418488 145.475708,354.697327 
z"/>
<path fill="#FCF8DE" opacity="1.000000" stroke="none" 
	d="
M290.981537,360.927551 
	C292.256439,357.927368 293.531372,354.927185 295.326019,350.704041 
	C296.612671,352.991028 297.268616,354.156921 297.632324,355.670715 
	C297.693359,358.141815 298.046570,360.265015 298.610199,363.652985 
	C295.715942,362.618988 293.348724,361.773254 290.981537,360.927551 
z"/>
<path fill="#D0BD76" opacity="1.000000" stroke="none" 
	d="
M335.955750,359.130646 
	C336.452332,359.123047 337.084686,358.913239 337.423370,359.140717 
	C339.578217,360.587952 341.668274,362.131622 343.779663,363.643555 
	C342.622467,365.076385 341.740540,367.216888 340.251312,367.796234 
	C337.046234,369.042969 333.849121,368.636627 331.518066,364.267365 
	C334.025909,365.073669 335.779724,366.049927 337.545746,366.072479 
	C338.912872,366.089966 340.295227,364.914032 341.670807,364.268616 
	C340.696106,363.353271 339.828613,362.264343 338.713837,361.575714 
	C337.765839,360.990112 336.532867,360.865936 335.373169,360.199402 
	C335.617706,359.692078 335.829498,359.448578 335.955750,359.130646 
z"/>
<path fill="#D0BD76" opacity="1.000000" stroke="none" 
	d="
M201.610580,368.036530 
	C196.636581,368.469299 193.276230,366.622528 192.295670,362.095886 
	C191.541977,358.616638 192.905472,355.627808 195.334457,354.085297 
	C195.334457,357.545044 194.163193,361.596558 195.679962,363.785492 
	C197.061798,365.779785 201.360336,365.753052 204.290649,366.593445 
	C204.027176,366.754761 203.017349,367.372955 201.610580,368.036530 
z"/>
<path fill="#D4071D" opacity="1.000000" stroke="none" 
	d="
M179.153412,179.526154 
	C177.815674,175.976883 176.396820,172.029602 175.224960,168.010315 
	C174.388382,165.140976 173.685455,162.199127 173.324112,159.240631 
	C173.171005,157.986954 174.045944,156.607712 174.781067,155.117981 
	C176.464981,162.999405 177.821472,171.048386 179.153412,179.526154 
z"/>
<path fill="#D0BD76" opacity="1.000000" stroke="none" 
	d="
M282.887115,360.973907 
	C282.789001,363.419983 282.690125,365.414185 282.591278,367.408356 
	C282.142120,367.386902 281.692963,367.365417 281.243805,367.343964 
	C281.243805,363.180908 281.243805,359.017883 281.243805,354.901733 
	C279.120972,354.593262 277.566498,354.367371 276.012054,354.141479 
	C276.021729,353.869446 276.031433,353.597382 276.041107,353.325317 
	C279.755127,353.325317 283.469147,353.325317 287.183136,353.325317 
	C283.370209,354.315643 282.215240,356.869049 282.887115,360.973907 
z"/>
<path fill="#CB182A" opacity="1.000000" stroke="none" 
	d="
M134.801910,313.130188 
	C133.731750,312.399170 132.928467,311.501648 132.445221,310.290192 
	C135.478165,306.250671 138.191040,302.525085 140.903931,298.799530 
	C141.106781,299.107269 141.309647,299.414978 141.755493,299.859497 
	C139.688583,304.318726 137.378677,308.641235 134.801910,313.130188 
z"/>
<path fill="#CBB564" opacity="1.000000" stroke="none" 
	d="
M325.092529,357.372253 
	C325.082367,360.956909 325.082367,364.093048 325.082367,367.229187 
	C324.498322,367.248322 323.914276,367.267426 323.330231,367.286530 
	C323.330231,364.574738 323.192719,361.854156 323.366028,359.153503 
	C323.569702,355.979340 323.409058,353.309509 319.116211,353.054016 
	C322.617981,352.888062 326.119751,352.722107 330.608551,352.509399 
	C328.137024,354.490967 326.619843,355.707367 325.092529,357.372253 
z"/>
<path fill="#D5C27D" opacity="1.000000" stroke="none" 
	d="
M272.817932,368.046631 
	C270.908966,368.040527 269.438080,368.040527 267.565002,368.040527 
	C267.565002,362.901337 267.565002,358.175934 267.565002,353.450500 
	C268.000031,353.428894 268.435089,353.407257 268.870117,353.385651 
	C268.870117,357.455536 268.870117,361.525421 268.870117,365.725586 
	C271.960327,365.995361 274.282837,366.198120 276.605377,366.400848 
	C276.626587,366.774353 276.647797,367.147827 276.669006,367.521301 
	C275.531342,367.698456 274.393677,367.875610 272.817932,368.046631 
z"/>
<path fill="#CBB564" opacity="1.000000" stroke="none" 
	d="
M290.812866,361.224670 
	C293.348724,361.773254 295.715942,362.618988 298.610199,363.652985 
	C298.046570,360.265015 297.693359,358.141815 297.658997,356.037598 
	C299.098694,358.728973 300.219513,361.401367 301.063507,363.413757 
	C296.598846,364.476166 292.618866,365.423248 288.619965,366.374847 
	C289.064209,365.309753 289.854187,363.415741 290.812866,361.224670 
z"/>
<path fill="#CE1A2C" opacity="1.000000" stroke="none" 
	d="
M125.975021,165.022568 
	C125.991440,172.724380 126.007851,180.426193 125.983749,188.600342 
	C125.624352,181.315842 125.305481,173.559006 125.275085,165.401947 
	C125.563553,165.001740 125.975021,165.022568 125.975021,165.022568 
z"/>
<path fill="#CBB564" opacity="1.000000" stroke="none" 
	d="
M125.883057,362.356415 
	C128.530457,362.379883 131.045959,362.721527 133.683075,363.079712 
	C133.527786,360.556671 133.421432,358.828827 133.624985,357.113037 
	C135.074066,359.671356 136.213242,362.217590 137.770615,365.698578 
	C132.446823,363.901245 127.820259,362.198608 123.917862,367.274628 
	C124.528961,365.741272 125.140060,364.207947 125.883057,362.356415 
z"/>
<path fill="#CBB564" opacity="1.000000" stroke="none" 
	d="
M335.628601,358.960693 
	C335.829498,359.448578 335.617706,359.692078 335.098389,359.969177 
	C333.894958,358.803619 331.972321,357.354156 332.169250,356.300964 
	C332.417389,354.973969 334.298370,353.172363 335.651031,353.005737 
	C337.958740,352.721497 340.403717,353.551178 342.391022,354.670898 
	C339.714508,354.939545 337.037994,355.208191 334.361481,355.476837 
	C334.674805,356.581482 334.988129,357.686096 335.628601,358.960693 
z"/>
<path fill="#D5C27D" opacity="1.000000" stroke="none" 
	d="
M174.577866,354.847290 
	C174.446960,359.173187 174.054596,363.300385 173.662231,367.427551 
	C173.219696,367.431458 172.777145,367.435394 172.334610,367.439301 
	C172.334610,362.919464 172.334610,358.399658 172.334610,353.879822 
	C172.995209,354.136047 173.655807,354.392303 174.577866,354.847290 
z"/>
<path fill="#CE1A2C" opacity="1.000000" stroke="none" 
	d="
M127.947083,197.409149 
	C129.884491,201.281662 131.813705,205.547089 133.782074,210.235718 
	C131.860443,206.373291 129.899673,202.087692 127.947083,197.409149 
z"/>
<path fill="#EFC854" opacity="1.000000" stroke="none" 
	d="
M194.988251,96.573715 
	C195.560730,96.207024 195.938828,96.088249 196.610107,95.920113 
	C197.195923,96.237862 197.488541,96.604988 198.093460,97.149704 
	C196.647644,98.850464 194.889526,100.373627 192.852966,102.021530 
	C192.195877,101.990250 191.817215,101.834213 191.237762,101.442856 
	C192.289246,99.745560 193.541550,98.283600 194.988251,96.573715 
z"/>
<path fill="#D0BD76" opacity="1.000000" stroke="none" 
	d="
M201.181656,352.660919 
	C201.432266,354.736389 201.432266,354.736389 198.063065,353.029846 
	C199.417358,352.770386 200.188904,352.622589 201.181656,352.660919 
z"/>
<path fill="#F1BB2A" opacity="1.000000" stroke="none" 
	d="
M220.200012,112.393692 
	C219.709366,114.567314 219.070862,117.087425 218.114029,119.757065 
	C218.547836,117.517792 219.299988,115.128983 220.200012,112.393692 
z"/>
<path fill="#CB182A" opacity="1.000000" stroke="none" 
	d="
M124.995750,324.884766 
	C125.325279,326.196991 125.559700,327.877197 125.645172,329.909241 
	C125.297707,328.591675 125.099167,326.922211 124.995750,324.884766 
z"/>
<path fill="#D4071D" opacity="1.000000" stroke="none" 
	d="
M126.267982,164.744171 
	C125.975021,165.022568 125.563553,165.001740 125.357765,164.992233 
	C125.498886,162.737503 125.845795,160.492264 126.507797,158.024597 
	C126.735573,160.023361 126.648262,162.244568 126.267982,164.744171 
z"/>
<path fill="#CB182A" opacity="1.000000" stroke="none" 
	d="
M126.760345,314.208435 
	C126.524757,315.832794 126.077332,317.740967 125.293396,319.812683 
	C125.487434,318.148254 126.017975,316.320221 126.760345,314.208435 
z"/>
<path fill="#D4071D" opacity="1.000000" stroke="none" 
	d="
M174.937683,152.544418 
	C174.696243,150.519455 174.524139,148.056885 174.605957,145.310242 
	C174.908936,147.386383 174.957977,149.746613 174.937683,152.544418 
z"/>
<path fill="#FCF9EE" opacity="1.000000" stroke="none" 
	d="
M88.985535,366.889648 
	C88.991692,366.193451 89.261887,365.659424 89.532082,365.125397 
	C89.964828,365.672089 90.397575,366.218781 90.830322,366.765472 
	C90.303398,366.860931 89.776482,366.956390 88.985535,366.889648 
z"/>
<path fill="#FBFAF1" opacity="1.000000" stroke="none" 
	d="
M165.956863,353.032349 
	C165.640396,353.599213 165.135391,353.842651 164.314087,354.040466 
	C163.997803,353.994812 163.960953,353.956360 163.960953,353.956360 
	C163.905945,353.550446 163.850937,353.144501 163.745682,352.435364 
	C164.386398,352.324402 165.077347,352.516663 165.956863,353.032349 
z"/>
<path fill="#CE1A2C" opacity="1.000000" stroke="none" 
	d="
M126.817184,193.338043 
	C127.243973,194.081726 127.635193,195.187469 127.996033,196.671112 
	C127.570976,195.932709 127.176300,194.816406 126.817184,193.338043 
z"/>
<path fill="#CE1A2C" opacity="1.000000" stroke="none" 
	d="
M125.885117,189.401276 
	C126.259674,189.948181 126.594368,190.870987 126.867630,192.191162 
	C126.485893,191.651398 126.165581,190.714294 125.885117,189.401276 
z"/>
<path fill="#D0BD76" opacity="1.000000" stroke="none" 
	d="
M205.017975,355.415833 
	C205.092224,355.411896 205.015305,355.540741 205.015305,355.540741 
	C205.015305,355.540741 204.943741,355.419800 205.017975,355.415833 
z"/>
<path fill="#CB182A" opacity="1.000000" stroke="none" 
	d="
M124.727730,320.060181 
	C124.971268,320.411377 124.974480,320.860107 124.956772,321.644287 
	C124.636337,321.882690 124.394638,321.706360 124.107719,321.247253 
	C124.165596,320.748413 124.326508,320.453094 124.727730,320.060181 
z"/>
<path fill="#CB182A" opacity="1.000000" stroke="none" 
	d="
M133.332275,314.126038 
	C133.315948,313.923981 133.554352,313.645233 134.080460,313.380829 
	C134.107773,313.613220 133.847397,313.831268 133.332275,314.126038 
z"/>
<path fill="#EFC854" opacity="1.000000" stroke="none" 
	d="
M187.759140,101.148132 
	C187.757538,101.325928 187.479828,101.450722 187.085220,101.448578 
	C187.139893,101.246132 187.311462,101.170631 187.759140,101.148132 
z"/>
<path fill="#CB182A" opacity="1.000000" stroke="none" 
	d="
M204.063965,321.748291 
	C203.867874,321.731476 203.747803,321.463318 203.787369,321.101807 
	C204.011337,321.171295 204.075668,321.334106 204.063965,321.748291 
z"/>
<path fill="#F1BB2A" opacity="1.000000" stroke="none" 
	d="
M217.630951,119.942032 
	C217.733002,120.133568 217.607330,120.448006 217.250565,120.885666 
	C217.147400,120.694237 217.275314,120.379585 217.630951,119.942032 
z"/>
<path fill="#EFC854" opacity="1.000000" stroke="none" 
	d="
M184.785034,101.560127 
	C184.781845,101.856323 184.538467,101.962875 184.052322,101.933472 
	C184.025146,101.628006 184.270248,101.485657 184.785034,101.560127 
z"/>
<path fill="#F4E4E3" opacity="1.000000" stroke="none" 
	d="
M292.411011,323.241455 
	C293.388153,321.545746 294.041809,319.928619 295.223083,318.945312 
	C296.246033,318.093842 297.867554,317.961365 299.224487,317.511108 
	C299.033539,319.041107 299.267120,320.806641 298.573059,322.057495 
	C296.380432,326.009277 294.005280,326.463165 292.411011,323.241455 
z"/>
<path fill="#F4E4E3" opacity="1.000000" stroke="none" 
	d="
M140.860413,298.500732 
	C138.191040,302.525085 135.478165,306.250671 132.413361,309.926239 
	C134.665192,305.749176 137.267319,301.621124 139.885986,297.503571 
	C139.933517,297.428833 140.248825,297.412598 140.318817,297.485168 
	C140.518219,297.691925 140.655319,297.958771 140.860413,298.500732 
z"/>
<path fill="#FBFAF1" opacity="1.000000" stroke="none" 
	d="
M164.019775,354.009888 
	C167.187241,355.684174 168.939560,358.287598 167.897400,361.759369 
	C167.411407,363.378326 165.822388,365.364166 164.313141,365.833923 
	C161.083099,366.839447 157.885681,366.309662 156.995316,362.120422 
	C155.992035,357.399811 158.072250,354.716675 163.622284,353.913025 
	C163.960953,353.956360 163.997803,353.994812 164.019775,354.009888 
z"/>
<path fill="#FDFDFC" opacity="1.000000" stroke="none" 
	d="
M219.935577,364.843048 
	C216.543503,365.723846 212.922226,368.052673 209.996811,363.394714 
	C209.637253,362.543030 209.432159,362.287415 209.227066,362.031769 
	C209.168488,361.582520 209.109909,361.133270 209.403290,360.294067 
	C209.707474,359.222687 209.659683,358.541199 209.611893,357.859741 
	C210.409851,356.905334 211.207794,355.950928 212.578522,354.923950 
	C213.419312,354.659973 213.687332,354.468597 213.955368,354.277252 
	C214.422974,354.232880 214.890564,354.188477 215.799713,354.344238 
	C216.241257,354.544373 216.661118,354.576538 216.661118,354.576538 
	C216.661118,354.576538 216.968460,354.255402 216.968460,354.255402 
	C217.129593,354.186920 217.290726,354.118439 217.707825,353.991699 
	C218.628693,357.421143 219.293594,360.908783 219.935577,364.843048 
z"/>
<path fill="#FBFAF1" opacity="1.000000" stroke="none" 
	d="
M209.443695,358.090607 
	C209.659683,358.541199 209.707474,359.222687 209.457596,359.957031 
	C209.198456,359.447113 209.236984,358.884277 209.443695,358.090607 
z"/>
<path fill="#FBFAF1" opacity="1.000000" stroke="none" 
	d="
M209.234009,362.286804 
	C209.432159,362.287415 209.637253,362.543030 209.866241,363.051086 
	C209.673737,363.049622 209.457336,362.795715 209.234009,362.286804 
z"/>
<path fill="#FBFAF1" opacity="1.000000" stroke="none" 
	d="
M216.735901,354.235596 
	C216.968460,354.255402 216.661118,354.576538 216.661118,354.576538 
	C216.661118,354.576538 216.241257,354.544373 216.143875,354.428040 
	C216.046494,354.311707 216.503342,354.215759 216.735901,354.235596 
z"/>
<path fill="#FBFAF1" opacity="1.000000" stroke="none" 
	d="
M213.699249,354.269043 
	C213.687332,354.468597 213.419312,354.659973 212.894775,354.860840 
	C212.906570,354.667175 213.174866,354.464020 213.699249,354.269043 
z"/>
</svg>